<svg width="116" height="35" viewBox="0 0 116 35" fill="none" xmlns="http://www.w3.org/2000/svg">
<path d="M88.1713 8.86221H91.7932V23.6314H100.514C100.514 25.46 99.0372 26.9369 97.2086 26.9369H91.4768C89.6482 26.9369 88.1713 25.46 88.1713 23.6314V8.86221ZM100.549 23.6314V8.86221H104.171V23.6314H100.549Z" fill="#151515"/>
<path d="M0 19.6578C0 21.7325 1.68791 23.4204 3.76263 23.4204V2.32153H0V19.6578ZM15.0505 23.4204H11.2879V2.32153H15.0505V23.4204ZM26.3384 19.6578C26.3384 21.7325 24.6505 23.4204 22.5758 23.4204V2.32153H26.3384V19.6578ZM3.76263 26.9369V23.4204H11.2879V26.9369H3.76263ZM22.5758 26.9369V23.4204H15.0505V26.9369H22.5758Z" fill="#151515"/>
<path d="M30.9142 8.86221H42.5889C44.4175 8.86221 45.8944 10.3391 45.8944 12.1677V23.6314H42.2725V19.5523H32.7428V23.6314H42.2725V26.9369H32.4263C30.5626 26.9369 29.0857 25.46 29.0857 23.6314V19.5523C29.0857 17.7237 30.5626 16.2468 32.4263 16.2468H42.2725V12.1677H30.9142V8.86221Z" fill="#151515"/>
<path d="M49.1912 8.86221H52.8131L52.8131 23.6314H61.956V26.9369H52.5318C50.6681 26.9369 49.1912 25.46 49.1912 23.6314L49.1912 8.86221ZM61.956 23.6314L61.956 8.86221H65.5779L65.5779 23.6314H61.956Z" fill="#151515"/>
<path d="M61.956 31.016H52.5318V34.3215H62.2725C64.0659 34.3215 65.5076 32.9149 65.5779 31.1215V26.9369L61.956 26.9369L61.956 31.016Z" fill="#151515"/>
<path d="M75.8372 8.86221H81.5691C83.3977 8.86221 84.8746 10.3743 84.8746 12.2029V26.9369H81.2526V12.2029H72.5318C72.5318 10.3743 74.0087 8.86221 75.8372 8.86221ZM72.5318 26.9369H68.8746V12.2029H72.5318V26.9369Z" fill="#151515"/>
<path d="M111.125 12.9413V23.5962H115.978V26.9369H110.844C108.98 26.9369 107.468 25.4248 107.468 23.5962V12.9413H111.125L111.125 9.45998H107.468V2.42704H111.125V9.45998H115.978V12.9413H111.125Z" fill="#151515"/>
</svg>
