<svg width="116" height="32" viewBox="0 0 116 32" fill="none" xmlns="http://www.w3.org/2000/svg">
<path d="M88.1713 6.54068H91.7932V21.3099H100.514C100.514 23.1384 99.0372 24.6154 97.2086 24.6154H91.4768C89.6482 24.6154 88.1713 23.1384 88.1713 21.3099V6.54068ZM100.549 21.3099V6.54068H104.171V21.3099H100.549Z" fill="#151515"/>
<path d="M0 17.3362C0 19.411 1.68791 21.0989 3.76263 21.0989V0H0V17.3362ZM15.0505 21.0989H11.2879V0H15.0505V21.0989ZM26.3384 17.3362C26.3384 19.411 24.6505 21.0989 22.5758 21.0989V0H26.3384V17.3362ZM3.76263 24.6153V21.0989H11.2879V24.6153H3.76263ZM22.5758 24.6153V21.0989H15.0505V24.6153H22.5758Z" fill="#151515"/>
<path d="M30.9142 6.54068H42.5889C44.4175 6.54068 45.8944 8.01759 45.8944 9.84616V21.3099H42.2725V17.2308H32.7428V21.3099H42.2725V24.6154H32.4263C30.5626 24.6154 29.0857 23.1384 29.0857 21.3099V17.2308C29.0857 15.4022 30.5626 13.9253 32.4263 13.9253H42.2725V9.84616H30.9142V6.54068Z" fill="#151515"/>
<path d="M49.1912 6.54068H52.8131L52.8131 21.3099H61.956V24.6154H52.5318C50.6681 24.6154 49.1912 23.1384 49.1912 21.3099L49.1912 6.54068ZM61.956 21.3099L61.956 6.54068H65.5779L65.5779 21.3099H61.956Z" fill="#151515"/>
<path d="M61.956 28.6945H52.5318V32H62.2725C64.0659 32 65.5076 30.5934 65.5779 28.8V24.6154L61.956 24.6154L61.956 28.6945Z" fill="#151515"/>
<path d="M75.8372 6.54068H81.5691C83.3977 6.54068 84.8746 8.05276 84.8746 9.88133V24.6154H81.2526V9.88133H72.5318C72.5318 8.05276 74.0087 6.54068 75.8372 6.54068ZM72.5318 24.6154H68.8746V9.88133H72.5318V24.6154Z" fill="#151515"/>
<path d="M111.125 10.6198V21.2747H115.978V24.6153H110.844C108.98 24.6153 107.468 23.1033 107.468 21.2747V10.6198H111.125L111.125 7.13845H107.468V0.105503H111.125V7.13845H115.978V10.6198H111.125Z" fill="#151515"/>
</svg>
